<svg xmlns="http://www.w3.org/2000/svg" width="502.046" height="502.046" viewBox="0 0 502.046 502.046"><title>header_menu_youtube</title><g id="レイヤー_2" data-name="レイヤー 2"><g id="レイヤー_1-2" data-name="レイヤー 1"><g id="レイヤー_2-2" data-name="レイヤー 2"><g id="レイヤー_1-2-2" data-name="レイヤー 1-2"><g id="レイヤー_2-2-2" data-name="レイヤー 2-2"><g id="レイヤー_1-2-2-2" data-name="レイヤー 1-2-2"><path d="M251.023,16.971,485.075,251.023,251.023,485.075,16.971,251.023,251.023,16.971m0-16.971L0,251.023,251.023,502.046,502.046,251.023Z" fill="#fff"/><path d="M355.764,250.374a27.244,27.244,0,0,0-23.217-21.182q-26.695-2.9-80.525-2.9t-80.381,2.9a26.329,26.329,0,0,0-14.944,6.819,27.558,27.558,0,0,0-8.417,14.363q-3.772,16.833-3.772,50.783,0,34.53,3.772,50.783a26.526,26.526,0,0,0,8.345,14.362,25.719,25.719,0,0,0,14.871,6.674q26.7,3.047,80.527,3.047t80.523-3.047a25.388,25.388,0,0,0,14.8-6.674,27.532,27.532,0,0,0,8.415-14.362q3.772-16.833,3.774-50.783Q359.536,266.626,355.764,250.374ZM205.887,265.031H190.362v82.554H175.854V265.031H160.619V251.393h45.268v13.638Zm39.173,82.554H232.147v-7.837q-7.835,8.854-14.8,8.852-6.673,0-8.413-5.368-1.159-3.482-1.162-10.593V275.911h12.913v52.812a40.064,40.064,0,0,0,.146,5.078q.435,3.047,3.047,3.047,3.917,0,8.27-6.094V275.911h12.913v71.674Zm49.331-21.474q0,10.591-1.3,14.513-2.473,7.975-10.3,7.977-6.965,0-13.5-7.977v6.963h-12.91V251.393h12.911v31.484q6.242-7.831,13.5-7.833,7.834,0,10.3,8.125,1.3,3.772,1.3,14.363Zm49.041-11.9h-25.97v12.623q0,10.012,6.673,10.01,4.786,0,5.8-5.224a72.328,72.328,0,0,0,.29-8.848h13.2v1.885a64.24,64.24,0,0,1-.291,8.417,17.566,17.566,0,0,1-3.047,7.833q-5.223,7.691-15.673,7.69-10.006,0-15.669-7.4-4.205-5.369-4.2-16.831v-25.1q0-11.462,4.059-16.83,5.661-7.4,15.529-7.4a18.322,18.322,0,0,1,15.379,7.4q3.923,5.369,3.918,16.83v14.946Z" fill="#fff"/><path d="M275.817,286.794q-3.339,0-6.529,3.193v43.67q3.192,3.191,6.529,3.191,5.655,0,5.661-9.722V296.515Q281.478,286.793,275.817,286.794Z" fill="#fff"/><path d="M323.99,286.794q-6.529,0-6.529,9.864v6.674h13.057v-6.674Q330.518,286.792,323.99,286.794Z" fill="#fff"/><path d="M197.475,173.913v39.321h14.508V173.913l17.553-57.891h-14.8l-9.864,38.159-10.3-38.159H179.193q4.063,12.189,9.431,27.132Q195.444,163.176,197.475,173.913Z" fill="#fff"/><path d="M248.978,214.25q10.012,0,15.379-7.4,4.064-5.369,4.062-17.12V164.338q0-11.606-4.062-16.976-5.369-7.4-15.379-7.4-9.724,0-15.235,7.4-4.061,5.369-4.061,16.976V189.73q0,11.606,4.061,17.12Q239.256,214.25,248.978,214.25Zm-6.24-52.524q0-10.012,6.24-10.012t6.238,10.012v30.468q0,10.16-6.238,10.156t-6.24-10.156Z" fill="#fff"/><path d="M288.874,214.25q7.259,0,14.947-9v7.98h13.2v-72.4h-13.2v55.278q-4.354,6.24-8.273,6.238-2.614,0-3.047-3.191a37.879,37.879,0,0,1-.146-5.079V140.833h-13.2V198q0,7.4,1.162,10.881Q282.2,214.249,288.874,214.25Z" fill="#fff"/></g></g></g></g></g></g></svg>