<svg xmlns="http://www.w3.org/2000/svg" width="502.046" height="502.046" viewBox="0 0 502.046 502.046"><title>header_menu_fb</title><g id="レイヤー_2" data-name="レイヤー 2"><g id="レイヤー_1-2" data-name="レイヤー 1"><g id="レイヤー_2-2" data-name="レイヤー 2"><g id="レイヤー_1-2-2" data-name="レイヤー 1-2"><g id="レイヤー_2-2-2" data-name="レイヤー 2-2"><g id="レイヤー_1-2-2-2" data-name="レイヤー 1-2-2"><path d="M251.023,16.971,485.075,251.023,251.023,485.075,16.971,251.023,251.023,16.971m0-16.971L0,251.023,251.023,502.046,502.046,251.023Z" fill="#fff"/><path d="M271.847,201.991V176.477a56.227,56.227,0,0,1,.534-8.893,17.273,17.273,0,0,1,2.429-6.2,9.91,9.91,0,0,1,6.109-4.222,43.493,43.493,0,0,1,11.234-1.169h25.513V104.964H276.878q-35.4,0-50.854,16.8t-15.451,49.5v30.725h-30.55v51.032h30.548v148.06h61.275V253.023h40.785l5.391-51.032Z" fill="#fff"/></g></g></g></g></g></g></svg>