<svg xmlns="http://www.w3.org/2000/svg" width="502.046" height="502.046" viewBox="0 0 502.046 502.046"><title>header_menu_tw</title><g id="レイヤー_2" data-name="レイヤー 2"><g id="レイヤー_1-2" data-name="レイヤー 1"><g id="レイヤー_2-2" data-name="レイヤー 2"><g id="レイヤー_1-2-2" data-name="レイヤー 1-2"><path d="M251.023,16.971,485.075,251.023,251.023,485.075,16.971,251.023,251.023,16.971m0-16.971L0,251.023,251.023,502.046,502.046,251.023Z" fill="#fff"/><path d="M382.023,174.138a105.506,105.506,0,0,1-30.448,8.187,51.343,51.343,0,0,0,23.249-29.139,103.793,103.793,0,0,1-33.562,12.768,52.9,52.9,0,0,0-91.513,36.175,58.686,58.686,0,0,0,1.31,12.115,147.343,147.343,0,0,1-60.818-16.288,149.909,149.909,0,0,1-48.211-39.044A52.922,52.922,0,0,0,158.4,229.637a52.456,52.456,0,0,1-23.9-6.713v.655a51.1,51.1,0,0,0,12.031,33.643A52.022,52.022,0,0,0,176.9,275.468a54.784,54.784,0,0,1-13.916,1.8,67.456,67.456,0,0,1-9.986-.814,52.991,52.991,0,0,0,49.439,36.67,103.532,103.532,0,0,1-65.645,22.587,112.57,112.57,0,0,1-12.769-.653,146.85,146.85,0,0,0,81.2,23.735,154.49,154.49,0,0,0,52.872-8.92q24.724-8.918,42.239-23.9a159.942,159.942,0,0,0,30.2-34.459,153.663,153.663,0,0,0,18.909-40.68,150.282,150.282,0,0,0,6.22-42.483q0-4.584-.165-6.875A110.738,110.738,0,0,0,382.023,174.138Z" fill="#fff"/></g></g></g></g></svg>