<svg xmlns="http://www.w3.org/2000/svg" width="150mm" height="22.855mm" viewBox="0 0 425.197 64.786"><title>logo_main_w_w</title><g id="レイヤー_2" data-name="レイヤー 2"><g id="logo"><rect x="252.366" y="50.902" width="3.022" height="3.022" transform="translate(37.298 194.872) rotate(-45.001)" fill="#fff"/><polygon points="199.954 47.606 197.15 52.464 194.345 47.606 192.742 47.606 192.742 57.222 194.345 57.222 194.345 50.812 197.15 55.67 199.954 50.812 199.954 57.222 201.557 57.222 201.557 47.606 199.954 47.606" fill="#fff"/><rect x="208.491" y="47.606" width="1.603" height="9.617" fill="#fff"/><path d="M235.953,47.606v8.014h-3.805V47.606h-1.6v8.014a1.6,1.6,0,0,0,1.6,1.6h3.805a1.6,1.6,0,0,0,1.6-1.6V47.606Z" fill="#fff"/><rect x="217.028" y="47.606" width="1.603" height="9.617" fill="#fff"/><polygon points="224.039 47.605 222.188 47.605 219.412 52.412 219.412 52.412 222.188 57.218 224.038 57.218 221.263 52.412 224.039 47.605" fill="#fff"/><polygon points="163.437 47.605 163.437 54.427 158.661 47.605 157.058 47.605 157.058 57.221 158.661 57.221 158.661 50.399 163.437 57.221 165.04 57.221 165.04 47.605 163.437 47.605" fill="#fff"/><polygon points="96.742 47.605 96.742 51.612 92.937 51.612 92.937 47.605 91.334 47.605 91.334 57.221 92.937 57.221 92.937 53.215 96.742 53.215 96.742 57.221 98.345 57.221 98.345 47.605 96.742 47.605" fill="#fff"/><polygon points="178.558 49.208 178.558 47.605 171.547 47.605 171.547 57.221 178.558 57.221 178.558 55.618 173.15 55.618 173.15 53.215 178.558 53.215 178.558 51.612 173.15 51.612 173.15 49.208 178.558 49.208" fill="#fff"/><path d="M148.948,47.6v8.014h-3.805V47.6h-1.6v8.014a1.6,1.6,0,0,0,1.6,1.6h3.805a1.6,1.6,0,0,0,1.6-1.6V47.6Z" fill="#fff"/><polygon points="124.367 47.605 117.357 47.605 117.357 49.208 120.06 49.208 120.06 57.221 121.663 57.221 121.663 49.208 124.367 49.208 124.367 47.605" fill="#fff"/><path d="M131.626,50.868v-1.66h5.193V47.6h-5.193a1.6,1.6,0,0,0-1.6,1.6v1.66a1.6,1.6,0,0,0,1.055,1.506l4.352,1.584v1.66h-5.193v1.6h5.193a1.6,1.6,0,0,0,1.6-1.6v-1.66a1.6,1.6,0,0,0-1.055-1.506Z" fill="#fff"/><polygon points="109.63 47.605 107.924 47.605 104.424 57.222 106.13 57.222 108.777 49.948 111.425 57.222 113.131 57.222 109.63 47.605" fill="#fff"/><polygon points="277.411 47.605 274.606 52.463 271.801 47.605 270.198 47.605 270.198 57.221 271.801 57.221 271.801 50.811 274.606 55.669 277.411 50.811 277.411 57.221 279.014 57.221 279.014 47.605 277.411 47.605" fill="#fff"/><rect x="313.824" y="47.606" width="1.603" height="9.617" fill="#fff"/><path d="M301.482,55.619V49.209h5.408v-1.6h-5.408a1.6,1.6,0,0,0-1.6,1.6v8.014h7.011v-5.61h-3.506v1.6h1.9v2.4Z" fill="#fff"/><path d="M323.964,55.619V49.209h5.408v-1.6h-5.408a1.6,1.6,0,0,0-1.6,1.6v8.014h7.011v-1.6Z" fill="#fff"/><polygon points="351.84 55.619 351.84 47.606 350.237 47.606 350.237 57.222 357.248 57.222 357.248 55.619 351.84 55.619" fill="#fff"/><polygon points="290.299 47.605 288.593 47.605 285.093 57.222 286.799 57.222 289.446 49.948 292.094 57.222 293.8 57.222 290.299 47.605" fill="#fff"/><polygon points="340.658 47.605 338.952 47.605 335.451 57.222 337.157 57.222 339.805 49.948 342.452 57.222 344.158 57.222 340.658 47.605" fill="#fff"/><polygon points="378.645 47.606 375.84 52.464 373.035 47.606 371.432 47.606 371.432 57.222 373.035 57.222 373.035 50.812 375.84 55.67 378.645 50.812 378.645 57.222 380.248 57.222 380.248 47.606 378.645 47.606" fill="#fff"/><rect x="387.182" y="47.606" width="1.603" height="9.617" fill="#fff"/><rect x="423.594" y="47.606" width="1.603" height="9.617" fill="#fff"/><polygon points="414.014 47.605 412.308 47.605 408.808 57.222 410.514 57.222 413.161 49.948 415.809 57.222 417.515 57.222 414.014 47.605" fill="#fff"/><polygon points="402.729 47.605 395.719 47.605 395.719 47.606 395.719 47.606 395.719 57.222 397.321 57.222 397.321 49.208 401.126 49.208 401.126 50.992 398.603 52.168 400.96 57.222 402.729 57.222 400.733 52.943 402.729 52.013 402.729 47.605" fill="#fff"/><path d="M172.548,6.41H161.24a5.321,5.321,0,0,0-10.433,0h-6.042V17.1h4.146l-4.146,23.51h7.263a4.274,4.274,0,0,0,4.21-3.532L159.761,17.1h10.651V36.173a4.379,4.379,0,0,0,3.426,4.352,4.279,4.279,0,0,0,5.121-4.194V12.821a6.411,6.411,0,0,0-6.411-6.411" fill="#fff"/><path d="M183.234,6.41V35.265a5.343,5.343,0,0,0,10.685,0V6.41Z" fill="#fff"/><path d="M204.607,19.234v-8.55a4.274,4.274,0,0,0-4.274-4.274h-4.275V34.181A6.412,6.412,0,0,0,207,38.715l19.481-19.481Z" fill="#fff"/><polygon points="129.804 6.41 123.393 6.41 123.393 17.097 134.078 17.097 134.078 10.685 129.804 10.685 129.804 6.41" fill="#fff"/><polygon points="140.49 0 129.805 0 129.805 6.41 134.079 6.41 134.079 10.685 140.49 10.685 140.49 0" fill="#fff"/><path d="M121.255,11.755a5.345,5.345,0,0,0-5.343-5.345H99.883V17.1h16.029a5.345,5.345,0,0,0,5.343-5.343" fill="#fff"/><path d="M121.255,24.577a5.345,5.345,0,0,0-5.343-5.343H99.883V29.92h16.029a5.343,5.343,0,0,0,5.343-5.343" fill="#fff"/><path d="M123.393,19.234V32.058H101.653a4.274,4.274,0,0,0-3.023,1.252l-7.3,7.3h36.333a6.411,6.411,0,0,0,6.411-6.411V19.234Z" fill="#fff"/><path d="M89.182,6.41H0L24.395,30.8a4.28,4.28,0,0,0,3.025,1.252H70.466v8.549l23.25-23.25A6.413,6.413,0,0,0,89.182,6.41" fill="#fff"/><path d="M56.664,40.607H34.2l24.18,24.179L70.494,52.668,59.615,41.789A4.274,4.274,0,0,0,56.664,40.607Z" fill="#fff"/><path d="M258.3,32.06H232.53a4.274,4.274,0,0,0-3.023,1.252l-7.3,7.3h36.33a4.274,4.274,0,0,0,4.27-4.5A4.437,4.437,0,0,0,258.3,32.06Z" fill="#fff"/><path d="M262.818,11.758a5.345,5.345,0,0,0-5.343-5.345H230.759V17.1h26.715A5.345,5.345,0,0,0,262.818,11.758Z" fill="#fff"/><path d="M257.474,19.237H230.759V29.924h26.715a5.343,5.343,0,1,0,0-10.687Z" fill="#fff"/><path d="M299.151,11.758a5.345,5.345,0,0,0-5.343-5.345H267.092V17.1h26.715A5.345,5.345,0,0,0,299.151,11.758Z" fill="#fff"/><path d="M292.726,19.237H267.092V29.924h19.743V40.608L297.26,30.182A6.412,6.412,0,0,0,292.726,19.237Z" fill="#fff"/><path d="M337.074,6.41H322.529a3.8,3.8,0,0,0-2.686,1.113L303.425,23.94V40.059l13.026-13.026v9.56a3.945,3.945,0,0,0,3.593,4.008,3.8,3.8,0,0,0,4-3.795V19.436Z" fill="#fff"/><path d="M391.007,6.41V37.4a3.206,3.206,0,0,0,6.412,0V6.41Z" fill="#fff"/><path d="M358.954,28.852V6.41H347.713a3.8,3.8,0,0,0-2.687,1.113L335.45,17.1h14.959v3.209H335.45V40.6h18.99a4.435,4.435,0,0,0,4.508-4.042,4.272,4.272,0,0,0-4.266-4.5H344V28.852Z" fill="#fff"/><path d="M363.229,6.41V40.6h17.8a5.7,5.7,0,0,0,5.7-5.7V6.41Zm14.009,25.649h-4.514a.95.95,0,0,1-.95-.95V17.1h6.414V31.11A.95.95,0,0,1,377.237,32.059Z" fill="#fff"/><path d="M401.694,6.41V21.73l7.122,7.122h7.836V31.11a.95.95,0,0,1-.95.95h-9.736a4.273,4.273,0,0,0-4.273,4.273h0a4.273,4.273,0,0,0,4.273,4.273H419.5a5.7,5.7,0,0,0,5.7-5.7V6.41Zm14.958,13.9h-6.413V17.1h6.413Z" fill="#fff"/></g></g></svg>